<svg id="Layer_1" data-name="Layer 1" xmlns="http://www.w3.org/2000/svg" viewBox="0 0 322 322"><defs><style>.cls-1{fill:#982e43;}.cls-2{fill:#323641;}</style></defs><rect class="cls-1" width="322" height="322"/><path class="cls-2" d="M316.75,568.81V699.19c0,3.39,4.27,6.13,9.54,6.13h41.48c5.27,0,9.54-2.74,9.54-6.13V607.71c0-3.38,4.27-6.13,9.53-6.13H402c3.44,0,6.62,1.2,8.31,3.13l85.36,97.49c1.69,1.92,4.87,3.12,8.32,3.12h47.7c7.52,0,12.08-5.34,8-9.42L430.58,565.52a11.51,11.51,0,0,0-8-2.84H326.29C321,562.68,316.75,565.42,316.75,568.81Z" transform="translate(-278 -473)"/></svg>