<svg id="Layer_1" data-name="Layer 1" xmlns="http://www.w3.org/2000/svg" viewBox="0 0 128.75 128.75"><defs><style>.cls-1{fill:#016967;}.cls-2{fill:#e8f6f9;}</style></defs><rect class="cls-1" width="128.75" height="128.75" rx="25"/><path class="cls-2" d="M263.08,359.42v72.5a3.41,3.41,0,0,0,3.41,3.41h14.82a3.41,3.41,0,0,0,3.4-3.41V381.05a3.41,3.41,0,0,1,3.41-3.4h5.42a3.42,3.42,0,0,1,3,1.73L327,433.59a3.41,3.41,0,0,0,3,1.74h17a3.41,3.41,0,0,0,2.87-5.24l-46.14-72.5a3.39,3.39,0,0,0-2.87-1.57H266.49A3.41,3.41,0,0,0,263.08,359.42Z" transform="translate(-241.3 -331.3)"/></svg>